<svg viewBox="0 0 500 500" xmlns="http://www.w3.org/2000/svg"><g fill="none" fill-rule="evenodd"><rect fill="#f79a1f" x="25" y="25" width="450" height="450" rx="30"/><path d="m25 363.35c0-16.566 10.494-38.36 23.456-48.701l64.993-51.83 136.55 76.07 124.4-189.45 72.24 25.02c15.661 5.424 28.357 23.26 28.357 39.821v230.72c0 16.569-13.437 30-30.01 30h-389.99c-16.572 0-30.01-13.437-30.01-29.996v-81.65" fill="#f05824"/><path d="m375.46 86.65c-25.754 0-46.657 20.903-46.657 46.657 0 11.08 3.881 21.256 10.338 29.26l-85.3 129.39c-4-1.12-8.212-1.728-12.573-1.728-12.39 0-23.647 4.839-31.998 12.722l-56.4-31.13c.571-2.916.864-5.915.864-8.998 0-25.754-20.903-46.627-46.657-46.627-25.754 0-46.627 20.873-46.627 46.627 0 7.156 1.618 13.932 4.499 19.991l-39.953 37.45v38.97l59.38-55.684c6.72 3.754 14.459 5.899 22.703 5.899 12.387 0 23.648-4.843 31.998-12.722l56.43 31.13c-.571 2.916-.864 5.915-.864 8.998 0 25.754 20.873 46.627 46.627 46.627 25.754 0 46.627-20.873 46.627-46.627 0-11.09-3.874-21.283-10.338-29.29l85.3-129.36c4.01 1.122 8.237 1.728 12.603 1.728 11.259 0 21.557-3.992 29.615-10.636l69.925 45.08v-33.816l-54.52-35.13c1.039-3.867 1.609-7.931 1.609-12.13 0-25.754-20.873-46.657-46.627-46.657" fill="#fff"/></g></svg>